<svg width="24" height="24" viewBox="0 0 24 24" fill="none" xmlns="http://www.w3.org/2000/svg">
<path d="M7.86752 14.3865L13.701 8.55299C14.433 7.82099 15.4875 7.68824 16.2203 8.42024C16.953 9.15224 16.8203 10.2075 16.0875 10.9395L9.98852 17.0385C8.92802 18.099 6.80627 18.099 5.48102 16.773C4.15502 15.447 4.15502 13.326 5.21552 12.2655L11.3145 6.16649C12.2316 5.26613 13.4671 4.76432 14.7522 4.77022C16.0374 4.77613 17.2682 5.28927 18.177 6.19803C19.0857 7.10678 19.5989 8.33762 19.6048 9.62277C19.6107 10.9079 19.1089 12.1434 18.2085 13.0605L14.7615 16.5075" stroke="white" stroke-linecap="round" stroke-linejoin="round"/>
</svg>
