<svg width="24" height="24" viewBox="0 0 24 24" fill="none" xmlns="http://www.w3.org/2000/svg">
<path d="M3.62099 12.054L7.33499 15.765C7.47582 15.9056 7.55502 16.0964 7.55516 16.2954C7.5553 16.4945 7.47637 16.6854 7.33574 16.8262C7.19511 16.9671 7.0043 17.0463 6.80527 17.0464C6.60625 17.0465 6.41532 16.9676 6.27449 16.827L2.03099 12.5835C1.89039 12.4428 1.8114 12.2521 1.8114 12.0532C1.8114 11.8544 1.89039 11.6636 2.03099 11.523L6.27299 7.28098C6.34218 7.20934 6.42494 7.15221 6.51644 7.1129C6.60794 7.07359 6.70636 7.0529 6.80594 7.05204C6.90553 7.05117 7.00428 7.07015 7.09646 7.10786C7.18863 7.14557 7.27237 7.20126 7.34279 7.27168C7.41321 7.3421 7.4689 7.42584 7.50661 7.51801C7.54432 7.61018 7.56329 7.70894 7.56243 7.80853C7.56156 7.90811 7.54087 8.00653 7.50157 8.09803C7.46226 8.18953 7.40512 8.27229 7.33349 8.34148L3.62099 12.054ZM16.773 15.765L20.4855 12.054L16.773 8.34148C16.6364 8.20002 16.5608 8.01057 16.5625 7.81392C16.5642 7.61728 16.6431 7.42917 16.7821 7.29011C16.9212 7.15106 17.1093 7.07218 17.3059 7.07047C17.5026 7.06876 17.692 7.14436 17.8335 7.28098L22.077 11.523C22.2176 11.6636 22.2966 11.8544 22.2966 12.0532C22.2966 12.2521 22.2176 12.4428 22.077 12.5835L17.8335 16.827C17.7638 16.8966 17.681 16.9518 17.5899 16.9895C17.4989 17.0271 17.4013 17.0465 17.3027 17.0464C17.2042 17.0463 17.1066 17.0268 17.0156 16.9891C16.9246 16.9513 16.8419 16.896 16.7722 16.8262C16.7026 16.7565 16.6474 16.6737 16.6097 16.5827C16.5721 16.4916 16.5528 16.394 16.5528 16.2954C16.5529 16.1969 16.5724 16.0993 16.6101 16.0083C16.6479 15.9173 16.7033 15.8346 16.773 15.765ZM12.8385 3.75898C12.8828 3.57029 12.9984 3.40607 13.1611 3.30075C13.3238 3.19543 13.521 3.15719 13.7113 3.19404C13.9015 3.2309 14.0702 3.33998 14.1818 3.49843C14.2934 3.65688 14.3394 3.85239 14.31 4.04398L11.1615 20.241C11.1172 20.4297 11.0016 20.5939 10.8389 20.6992C10.6762 20.8045 10.479 20.8428 10.2887 20.8059C10.0984 20.7691 9.92982 20.66 9.8182 20.5015C9.70658 20.3431 9.66063 20.1476 9.68999 19.956L12.8385 3.75898Z" fill="#9D9D9D"/>
</svg>
