<svg width="24" height="24" viewBox="0 0 24 24" fill="none" xmlns="http://www.w3.org/2000/svg">
<path d="M3.62099 12.0538L7.33499 15.7648C7.47582 15.9054 7.55502 16.0962 7.55516 16.2953C7.5553 16.4943 7.47637 16.6852 7.33574 16.826C7.19511 16.9669 7.0043 17.0461 6.80527 17.0462C6.60625 17.0463 6.41532 16.9674 6.27449 16.8268L2.03099 12.5833C1.89039 12.4426 1.8114 12.2519 1.8114 12.053C1.8114 11.8542 1.89039 11.6634 2.03099 11.5228L6.27299 7.28079C6.34218 7.20916 6.42494 7.15202 6.51644 7.11272C6.60794 7.07341 6.70636 7.05272 6.80594 7.05185C6.90553 7.05099 7.00428 7.06997 7.09646 7.10768C7.18863 7.14539 7.27237 7.20108 7.34279 7.2715C7.41321 7.34192 7.4689 7.42565 7.50661 7.51783C7.54432 7.61 7.56329 7.70876 7.56243 7.80834C7.56156 7.90793 7.54087 8.00634 7.50157 8.09785C7.46226 8.18935 7.40512 8.27211 7.33349 8.34129L3.62099 12.0538ZM16.773 15.7648L20.4855 12.0538L16.773 8.34129C16.6364 8.19984 16.5608 8.01039 16.5625 7.81374C16.5642 7.61709 16.6431 7.42898 16.7821 7.28993C16.9212 7.15087 17.1093 7.072 17.3059 7.07029C17.5026 7.06858 17.692 7.14417 17.8335 7.28079L22.077 11.5228C22.2176 11.6634 22.2966 11.8542 22.2966 12.053C22.2966 12.2519 22.2176 12.4426 22.077 12.5833L17.8335 16.8268C17.7638 16.8964 17.681 16.9516 17.5899 16.9893C17.4989 17.0269 17.4013 17.0463 17.3027 17.0462C17.2042 17.0461 17.1066 17.0267 17.0156 16.9889C16.9246 16.9511 16.8419 16.8958 16.7722 16.826C16.7026 16.7563 16.6474 16.6735 16.6097 16.5825C16.5721 16.4914 16.5528 16.3938 16.5528 16.2953C16.5529 16.1967 16.5724 16.0991 16.6101 16.0081C16.6479 15.9171 16.7033 15.8344 16.773 15.7648ZM12.8385 3.75879C12.8828 3.5701 12.9984 3.40589 13.1611 3.30057C13.3238 3.19525 13.521 3.15701 13.7113 3.19386C13.9015 3.23072 14.0702 3.3398 14.1818 3.49825C14.2934 3.6567 14.3394 3.85221 14.31 4.04379L11.1615 20.2408C11.1172 20.4295 11.0016 20.5937 10.8389 20.699C10.6762 20.8043 10.479 20.8426 10.2887 20.8057C10.0984 20.7689 9.92982 20.6598 9.8182 20.5013C9.70658 20.3429 9.66063 20.1474 9.68999 19.9558L12.8385 3.75879Z" fill="#CB24E0"/>
</svg>
