<svg width="33" height="32" viewBox="0 0 33 32" fill="none" xmlns="http://www.w3.org/2000/svg">
<g clip-path="url(#clip0_4004_1489)">
<path d="M27.8507 11.9054L27.5227 12.6601C27.4714 12.783 27.385 12.888 27.2742 12.9618C27.1634 13.0356 27.0332 13.075 26.9 13.075C26.7669 13.075 26.6367 13.0356 26.5259 12.9618C26.4151 12.888 26.3286 12.783 26.2774 12.6601L25.9494 11.9054C25.3727 10.5704 24.3165 9.5 22.9894 8.90544L21.9774 8.45344C21.8546 8.39697 21.7506 8.30647 21.6777 8.19268C21.6048 8.07889 21.566 7.94659 21.566 7.81144C21.566 7.6763 21.6048 7.54399 21.6777 7.43021C21.7506 7.31642 21.8546 7.22592 21.9774 7.16944L22.9334 6.74411C24.2939 6.13262 25.3681 5.02262 25.9347 3.64278L26.272 2.82811C26.3216 2.70191 26.408 2.59357 26.52 2.51721C26.632 2.44085 26.7645 2.4 26.9 2.4C27.0356 2.4 27.168 2.44085 27.28 2.51721C27.3921 2.59357 27.4785 2.70191 27.528 2.82811L27.8654 3.64144C28.4313 5.02154 29.5051 6.13202 30.8654 6.74411L31.8227 7.17078C31.9451 7.22742 32.0487 7.3179 32.1214 7.43154C32.194 7.54518 32.2326 7.67724 32.2326 7.81211C32.2326 7.94698 32.194 8.07904 32.1214 8.19268C32.0487 8.30632 31.9451 8.3968 31.8227 8.45344L30.8094 8.90411C29.4824 9.49927 28.4268 10.5701 27.8507 11.9054ZM4.22269 5.06811H18.9V7.73478H5.56669V26.4014L17.956 14.0094C18.0799 13.8855 18.2269 13.7871 18.3888 13.72C18.5506 13.6529 18.7241 13.6184 18.8994 13.6184C19.0746 13.6184 19.2481 13.6529 19.4099 13.72C19.5718 13.7871 19.7189 13.8855 19.8427 14.0094L26.9 21.0814V15.7348H29.5667V27.7441C29.5643 28.0943 29.4242 28.4294 29.1767 28.6772C28.9292 28.9249 28.5942 29.0653 28.244 29.0681H4.22269C3.87178 29.0678 3.53535 28.9281 3.28734 28.6798C3.03933 28.4316 2.90002 28.095 2.90002 27.7441V6.39211C2.90246 6.04195 3.04256 5.7068 3.29004 5.45907C3.53753 5.21133 3.87253 5.0709 4.22269 5.06811ZM10.9 15.7348C10.1928 15.7348 9.5145 15.4538 9.01441 14.9537C8.51431 14.4536 8.23336 13.7754 8.23336 13.0681C8.23336 12.3609 8.51431 11.6826 9.01441 11.1825C9.5145 10.6824 10.1928 10.4014 10.9 10.4014C11.6073 10.4014 12.2855 10.6824 12.7856 11.1825C13.2857 11.6826 13.5667 12.3609 13.5667 13.0681C13.5667 13.7754 13.2857 14.4536 12.7856 14.9537C12.2855 15.4538 11.6073 15.7348 10.9 15.7348Z" fill="white"/>
</g>
<defs>
<clipPath id="clip0_4004_1489">
<rect width="32" height="32" fill="white" transform="translate(0.5)"/>
</clipPath>
</defs>
</svg>
