<svg width="16" height="16" viewBox="0 0 16 16" fill="none" xmlns="http://www.w3.org/2000/svg">
<g clip-path="url(#clip0_44_12349)">
<path d="M7.33329 0.666626H7.99996C12.05 0.666626 15.3333 3.94996 15.3333 7.99996C15.3333 12.05 12.05 15.3333 7.99996 15.3333C3.94996 15.3333 0.666626 12.05 0.666626 7.99996V7.33329H1.99996V7.99996C1.99996 9.18665 2.35185 10.3467 3.01114 11.3334C3.67043 12.3201 4.6075 13.0891 5.70386 13.5432C6.80022 13.9974 8.00662 14.1162 9.1705 13.8847C10.3344 13.6532 11.4035 13.0817 12.2426 12.2426C13.0817 11.4035 13.6532 10.3344 13.8847 9.1705C14.1162 8.00662 13.9974 6.80022 13.5432 5.70386C13.0891 4.6075 12.3201 3.67043 11.3334 3.01114C10.3467 2.35185 9.18665 1.99996 7.99996 1.99996H7.33329V0.666626Z" fill="white"/>
</g>
<defs>
<clipPath id="clip0_44_12349">
<rect width="16" height="16" fill="white"/>
</clipPath>
</defs>
</svg>
