<svg width="121" height="32" viewBox="0 0 121 32" fill="none" xmlns="http://www.w3.org/2000/svg">
<path d="M24.3687 4.66883V5.26248C24.031 5.34164 23.6577 5.5692 23.2489 5.94519C22.8401 6.30138 22.5113 6.93461 22.2625 7.84488L17.2234 25.8326C17.1879 25.8326 17.1523 25.8326 17.1168 25.8326C17.0812 25.8326 17.0457 25.8326 17.0101 25.8326C16.9746 25.8326 16.939 25.8326 16.9035 25.8326C16.8679 25.8326 16.8324 25.8326 16.7968 25.8326L11.1446 7.16218C10.9135 6.39043 10.6558 5.88582 10.3714 5.64836C10.087 5.4109 9.82036 5.28227 9.57152 5.26248V4.66883C9.89146 4.68862 10.2914 4.70841 10.7713 4.72819C11.2512 4.74798 11.7133 4.75788 12.1577 4.75788C12.8509 4.75788 13.4997 4.74798 14.104 4.72819C14.7083 4.70841 15.1971 4.68862 15.5704 4.66883V5.26248C15.0372 5.28227 14.6106 5.34164 14.2906 5.44058C13.9885 5.53952 13.8107 5.75719 13.7574 6.0936C13.7218 6.43 13.8107 6.98408 14.024 7.75583L17.9966 21.4396L17.6233 21.7957L21.1427 9.47743C21.4626 8.38906 21.6048 7.54805 21.5692 6.9544C21.5515 6.34095 21.356 5.9155 20.9827 5.67804C20.6094 5.42079 20.0495 5.28227 19.303 5.26248V4.66883C19.8185 4.68862 20.3428 4.70841 20.876 4.72819C21.4093 4.74798 21.907 4.75788 22.3691 4.75788C22.8312 4.75788 23.2134 4.74798 23.5155 4.72819C23.8177 4.70841 24.1021 4.68862 24.3687 4.66883ZM5.73225 4.66883V5.26248C5.27011 5.30206 4.9324 5.401 4.71911 5.55931C4.52359 5.71762 4.42583 5.97487 4.42583 6.33106C4.4436 6.66746 4.54136 7.14239 4.71911 7.75583L8.85166 21.7957L8.18512 22.5378L11.9177 9.26965L12.3177 9.98203L7.9185 25.8326C7.88295 25.8326 7.8474 25.8326 7.81185 25.8326C7.77631 25.8326 7.74076 25.8326 7.70521 25.8326C7.66966 25.8326 7.63411 25.8326 7.59856 25.8326C7.56301 25.8326 7.52746 25.8326 7.49191 25.8326L1.83965 7.16218C1.60858 6.39043 1.31531 5.88582 0.959818 5.64836C0.60433 5.4109 0.284391 5.28227 0 5.26248V4.66883C0.355488 4.68862 0.790961 4.70841 1.30642 4.72819C1.83965 4.74798 2.35511 4.75788 2.85279 4.75788C3.43935 4.75788 3.98147 4.74798 4.47915 4.72819C4.99461 4.70841 5.41231 4.68862 5.73225 4.66883Z" fill="#EEEEEE"/>
<path d="M29.726 9.98203C31.2902 9.98203 32.5077 10.5163 33.3787 11.5849C34.2674 12.6337 34.7118 14.2761 34.7118 16.5122H25.3002L25.2735 15.9483H32.1522C32.1878 14.9786 32.1167 14.0881 31.939 13.2768C31.7612 12.4457 31.4768 11.7828 31.0858 11.2881C30.7125 10.7934 30.2237 10.546 29.6194 10.546C28.8018 10.546 28.073 11.0011 27.4331 11.9114C26.811 12.8217 26.4378 14.2662 26.3133 16.2451L26.3933 16.3638C26.3578 16.6606 26.3311 16.9871 26.3133 17.3433C26.2956 17.6995 26.2867 18.0557 26.2867 18.4119C26.2867 19.7575 26.4822 20.9152 26.8732 21.8848C27.2643 22.8544 27.7709 23.5965 28.393 24.111C29.0328 24.6057 29.6905 24.8531 30.3659 24.8531C30.8991 24.8531 31.4057 24.764 31.8856 24.5859C32.3655 24.388 32.8099 24.0714 33.2187 23.6361C33.6275 23.2007 33.983 22.617 34.2852 21.8848L34.8184 22.1223C34.6229 22.7753 34.3029 23.4085 33.8586 24.0219C33.4142 24.6354 32.8543 25.14 32.1789 25.5358C31.5035 25.9117 30.7214 26.0997 29.8327 26.0997C28.5529 26.0997 27.4509 25.7732 26.5266 25.1202C25.6201 24.4672 24.9181 23.5668 24.4204 22.4191C23.9405 21.2516 23.7005 19.9158 23.7005 18.4119C23.7005 16.6705 23.9494 15.1765 24.447 13.9298C24.9447 12.6634 25.6468 11.6937 26.5533 11.0209C27.4598 10.3283 28.5174 9.98203 29.726 9.98203Z" fill="#EEEEEE"/>
<path d="M44.6528 9.98203C46.1103 9.98203 47.319 10.6548 48.2788 12.0005C49.2386 13.3263 49.7185 15.3447 49.7185 18.0557C49.7185 19.8367 49.443 21.3307 48.892 22.5378C48.3588 23.7251 47.6389 24.6156 46.7324 25.2093C45.8259 25.8029 44.8394 26.0997 43.773 26.0997C42.8842 26.0997 42.0222 25.8227 41.1868 25.2686C40.3692 24.6948 39.7559 23.8537 39.3471 22.7456L39.8804 23.0721C40.3247 23.8636 40.8757 24.4573 41.5334 24.8531C42.191 25.229 42.8665 25.417 43.5597 25.417C44.7506 25.417 45.6393 24.8234 46.2258 23.6361C46.8302 22.429 47.1323 20.5689 47.1323 18.0557C47.1323 16.4529 47.0168 15.1171 46.7857 14.0486C46.5547 12.98 46.1992 12.1884 45.7193 11.6739C45.2393 11.1397 44.6261 10.8725 43.8796 10.8725C43.062 10.8725 42.2977 11.2881 41.5867 12.1192C40.8935 12.9305 40.4669 14.1277 40.3069 15.7108L39.987 15.2952C40.1825 13.6132 40.7069 12.3072 41.56 11.3771C42.431 10.4471 43.4619 9.98203 44.6528 9.98203ZM40.4936 2.44263V24.1407C40.2625 24.3583 40.0226 24.5859 39.7737 24.8234C39.5426 25.041 39.3116 25.2587 39.0805 25.4764C38.8494 25.6941 38.6095 25.9216 38.3606 26.1591L37.9074 25.9513C37.9785 25.6743 38.0229 25.3972 38.0407 25.1202C38.0763 24.8234 38.094 24.5266 38.094 24.2297V6.00455C38.094 5.11407 37.9518 4.46105 37.6674 4.04549C37.3831 3.61015 36.8498 3.39247 36.0678 3.39247V2.76914C36.6365 2.8285 37.1875 2.85818 37.7208 2.85818C38.2362 2.85818 38.725 2.8285 39.1872 2.76914C39.6671 2.68998 40.1025 2.58115 40.4936 2.44263Z" fill="#EEEEEE"/>
<path d="M78.7011 9.98203C80.2653 9.98203 81.4828 10.5163 82.3538 11.5849C83.2425 12.6337 83.6869 14.2761 83.6869 16.5122H74.2753L74.2486 15.9483H81.1273C81.1629 14.9786 81.0918 14.0881 80.914 13.2768C80.7363 12.4457 80.4519 11.7828 80.0609 11.2881C79.6876 10.7934 79.1988 10.546 78.5945 10.546C77.7769 10.546 77.0481 11.0011 76.4082 11.9114C75.7861 12.8217 75.4129 14.2662 75.2884 16.2451L75.3684 16.3638C75.3329 16.6606 75.3062 16.9871 75.2884 17.3433C75.2707 17.6995 75.2618 18.0557 75.2618 18.4119C75.2618 19.7575 75.4573 20.9152 75.8483 21.8848C76.2394 22.8544 76.7459 23.5965 77.3681 24.111C78.0079 24.6057 78.6656 24.8531 79.341 24.8531C79.8742 24.8531 80.3808 24.764 80.8607 24.5859C81.3406 24.388 81.785 24.0714 82.1938 23.6361C82.6026 23.2007 82.9581 22.617 83.2603 21.8848L83.7935 22.1223C83.598 22.7753 83.278 23.4085 82.8337 24.0219C82.3893 24.6354 81.8294 25.14 81.154 25.5358C80.4786 25.9117 79.6965 26.0997 78.8078 26.0997C77.528 26.0997 76.426 25.7732 75.5017 25.1202C74.5952 24.4672 73.8932 23.5668 73.3955 22.4191C72.9156 21.2516 72.6756 19.9158 72.6756 18.4119C72.6756 16.6705 72.9244 15.1765 73.4221 13.9298C73.9198 12.6634 74.6219 11.6937 75.5284 11.0209C76.4349 10.3283 77.4925 9.98203 78.7011 9.98203Z" fill="#EEEEEE"/>
<path d="M94.6677 9.98203C95.3431 9.98203 95.903 10.081 96.3474 10.2789C96.8095 10.4767 97.1917 10.7538 97.4938 11.11C97.8315 11.5057 98.0715 12.0005 98.2137 12.5941C98.3559 13.1878 98.427 13.9892 98.427 14.9984V22.9237C98.427 23.7548 98.5781 24.3188 98.8802 24.6156C99.2002 24.9124 99.7245 25.0608 100.453 25.0608V25.6842C100.151 25.6644 99.689 25.6446 99.0669 25.6248C98.4448 25.5852 97.8404 25.5654 97.2539 25.5654C96.6673 25.5654 96.0896 25.5852 95.5209 25.6248C94.9699 25.6446 94.5522 25.6644 94.2678 25.6842V25.0608C94.9076 25.0608 95.3609 24.9124 95.6275 24.6156C95.8941 24.3188 96.0274 23.7548 96.0274 22.9237V14.3454C96.0274 13.7319 95.983 13.168 95.8941 12.6535C95.8053 12.139 95.6008 11.7234 95.2809 11.4068C94.9787 11.0902 94.5077 10.9319 93.8678 10.9319C93.1213 10.9319 92.4637 11.1693 91.8949 11.6443C91.3439 12.1192 90.9084 12.7722 90.5885 13.6033C90.2863 14.4146 90.1352 15.3249 90.1352 16.3341V22.9237C90.1352 23.7548 90.2685 24.3188 90.5351 24.6156C90.8018 24.9124 91.255 25.0608 91.8949 25.0608V25.6842C91.6105 25.6644 91.1839 25.6446 90.6151 25.6248C90.0641 25.5852 89.4953 25.5654 88.9088 25.5654C88.3222 25.5654 87.7179 25.5852 87.0958 25.6248C86.4737 25.6446 86.0116 25.6644 85.7094 25.6842V25.0608C86.4381 25.0608 86.9536 24.9124 87.2558 24.6156C87.5757 24.3188 87.7357 23.7548 87.7357 22.9237V13.633C87.7357 12.7425 87.5935 12.0895 87.3091 11.6739C87.0247 11.2386 86.4915 11.0209 85.7094 11.0209V10.3976C86.2782 10.457 86.8292 10.4866 87.3624 10.4866C87.8779 10.4866 88.3667 10.457 88.8288 10.3976C89.3087 10.3184 89.7442 10.2096 90.1352 10.0711V13.5736C90.5973 12.228 91.2372 11.298 92.0549 10.7835C92.8903 10.2492 93.7612 9.98203 94.6677 9.98203Z" fill="#EEEEEE"/>
<path d="M106.044 10.0711V22.9237C106.044 23.7548 106.195 24.3188 106.497 24.6156C106.817 24.9124 107.341 25.0608 108.07 25.0608V25.6842C107.768 25.6644 107.306 25.6446 106.684 25.6248C106.079 25.5852 105.466 25.5654 104.844 25.5654C104.24 25.5654 103.626 25.5852 103.004 25.6248C102.382 25.6446 101.92 25.6644 101.618 25.6842V25.0608C102.347 25.0608 102.862 24.9124 103.164 24.6156C103.484 24.3188 103.644 23.7548 103.644 22.9237V13.633C103.644 12.7425 103.502 12.0895 103.218 11.6739C102.933 11.2386 102.4 11.0209 101.618 11.0209V10.3976C102.187 10.457 102.738 10.4866 103.271 10.4866C103.786 10.4866 104.275 10.457 104.737 10.3976C105.217 10.3184 105.653 10.2096 106.044 10.0711Z" fill="#EEEEEE"/>
<path d="M115.908 9.98203C117.472 9.98203 118.689 10.5163 119.56 11.5849C120.449 12.6337 120.893 14.2761 120.893 16.5122H111.482L111.455 15.9483H118.334C118.369 14.9786 118.298 14.0881 118.121 13.2768C117.943 12.4457 117.658 11.7828 117.267 11.2881C116.894 10.7934 116.405 10.546 115.801 10.546C114.983 10.546 114.255 11.0011 113.615 11.9114C112.993 12.8217 112.619 14.2662 112.495 16.2451L112.575 16.3638C112.539 16.6606 112.513 16.9871 112.495 17.3433C112.477 17.6995 112.468 18.0557 112.468 18.4119C112.468 19.7575 112.664 20.9152 113.055 21.8848C113.446 22.8544 113.952 23.5965 114.575 24.111C115.214 24.6057 115.872 24.8531 116.548 24.8531C117.081 24.8531 117.587 24.764 118.067 24.5859C118.547 24.388 118.991 24.0714 119.4 23.6361C119.809 23.2007 120.165 22.617 120.467 21.8848L121 22.1223C120.804 22.7753 120.485 23.4085 120.04 24.0219C119.596 24.6354 119.036 25.14 118.36 25.5358C117.685 25.9117 116.903 26.0997 116.014 26.0997C114.735 26.0997 113.633 25.7732 112.708 25.1202C111.802 24.4672 111.1 23.5668 110.602 22.4191C110.122 21.2516 109.882 19.9158 109.882 18.4119C109.882 16.6705 110.131 15.1765 110.629 13.9298C111.126 12.6634 111.828 11.6937 112.735 11.0209C113.641 10.3283 114.699 9.98203 115.908 9.98203Z" fill="#EEEEEE"/>
<path fill-rule="evenodd" clip-rule="evenodd" d="M71.8066 6.83969C71.8066 5.92346 69.948 3.42021 68.709 3.42021C69.948 3.42021 71.8066 0.916237 71.8066 0C71.8066 0.916237 73.6135 3.41997 74.8525 3.41997C73.6135 3.41997 71.8066 5.92346 71.8066 6.83969ZM70.604 12.1531C70.604 16.1873 67.6665 19.4576 64.0429 19.4576C60.4193 19.4576 57.4818 16.1873 57.4818 12.1531C57.4818 8.11891 60.4193 4.84856 64.0429 4.84856C67.6665 4.84856 70.604 8.11891 70.604 12.1531ZM62.0746 7.40118C62.0746 6.31411 62.9558 5.43286 64.0429 5.43286C65.13 5.43286 66.0112 6.31411 66.0112 7.40118V16.7588C66.0112 17.8458 65.13 18.7271 64.0429 18.7271C62.9558 18.7271 62.0746 17.8458 62.0746 16.7588V7.40118ZM56.1697 19.8957C56.1697 21.5789 56.1697 26.6282 60.5888 26.6282H66.5111C68.5995 26.6282 70.3313 27.7592 68.9619 29.3359C68.2252 30.1842 67.1752 30.901 66.0546 30.901C73.5361 30.901 72.8778 21.6436 66.0546 21.6436H58.0304C56.9256 21.6436 56.1697 20.9315 56.1697 19.8957ZM61.8744 30.9009C62.7152 30.9009 63.9588 31.7055 63.9588 32C63.9588 31.7055 65.2025 30.9008 66.0433 30.9008C65.2025 30.9008 63.9588 30.096 63.9588 29.8015C63.9588 30.096 62.7152 30.9009 61.8744 30.9009Z" fill="#D11CE9"/>
<path d="M104.302 6.71431C104.302 6.14208 103.069 4.57869 102.246 4.57869C103.069 4.57869 104.302 3.01486 104.302 2.44263C104.302 3.01486 105.501 4.57854 106.323 4.57854C105.501 4.57854 104.302 6.14208 104.302 6.71431Z" fill="#EEEEEE"/>
</svg>
