<svg width="33" height="32" viewBox="0 0 33 32" fill="none" xmlns="http://www.w3.org/2000/svg">
<g clip-path="url(#clip0_4004_303)">
<path d="M27.7894 11.5919L28.1174 10.8372C28.694 9.50219 29.7502 8.43179 31.0774 7.83723L32.0894 7.38523C32.2121 7.32875 32.3161 7.23825 32.389 7.12447C32.462 7.01068 32.5007 6.87837 32.5007 6.74323C32.5007 6.60809 32.462 6.47578 32.389 6.36199C32.3161 6.2482 32.2121 6.1577 32.0894 6.10123L31.1334 5.67589C29.7728 5.0644 28.6986 3.9544 28.132 2.57456L27.7947 1.7599C27.7451 1.6337 27.6587 1.52536 27.5467 1.449C27.4347 1.37263 27.3023 1.33179 27.1667 1.33179C27.0311 1.33179 26.8987 1.37263 26.7867 1.449C26.6746 1.52536 26.5882 1.6337 26.5387 1.7599L26.2014 2.57323C25.6354 3.95333 24.5616 5.06381 23.2014 5.67589L22.244 6.10256C22.1216 6.1592 22.018 6.24968 21.9453 6.36333C21.8727 6.47697 21.8341 6.60902 21.8341 6.7439C21.8341 6.87877 21.8727 7.01082 21.9453 7.12446C22.018 7.23811 22.1216 7.32859 22.244 7.38523L23.2574 7.83589C24.5843 8.43105 25.6399 9.50193 26.216 10.8372L26.544 11.5919C26.784 12.1439 27.548 12.1439 27.7894 11.5919ZM3.16669 5.33323C3.16669 4.97961 3.30716 4.64047 3.55721 4.39042C3.80726 4.14037 4.1464 3.99989 4.50002 3.99989H19.1667V6.66656H5.83335V25.3332H27.1667V14.6666H29.8334V26.6666C29.8334 27.0202 29.6929 27.3593 29.4428 27.6094C29.1928 27.8594 28.8536 27.9999 28.5 27.9999H4.50002C4.1464 27.9999 3.80726 27.8594 3.55721 27.6094C3.30716 27.3593 3.16669 27.0202 3.16669 26.6666V5.33323ZM9.83335 10.6666H23.1667V14.6666H20.5V13.3332H17.8334V18.6666H19.8334V21.3332H13.1667V18.6666H15.1667V13.3332H12.5V14.6666H9.83335V10.6666Z" fill="white"/>
</g>
<defs>
<clipPath id="clip0_4004_303">
<rect width="32" height="32" fill="white" transform="translate(0.5)"/>
</clipPath>
</defs>
</svg>
