<svg width="33" height="32" viewBox="0 0 33 32" fill="none" xmlns="http://www.w3.org/2000/svg">
<path d="M28.5969 27.175L26.9406 17.625H27.5C27.95 17.625 28.3125 17.2625 28.3125 16.8125V10.8125C28.3125 10.3625 27.95 10 27.5 10H19.8125V4.3125C19.8125 3.8625 19.45 3.5 19 3.5H14C13.55 3.5 13.1875 3.8625 13.1875 4.3125V10H5.5C5.05 10 4.6875 10.3625 4.6875 10.8125V16.8125C4.6875 17.2625 5.05 17.625 5.5 17.625H6.05937L4.40313 27.175C4.39375 27.2219 4.39062 27.2687 4.39062 27.3125C4.39062 27.7625 4.75313 28.125 5.20312 28.125H27.7969C27.8438 28.125 27.8906 28.1219 27.9344 28.1125C28.3781 28.0375 28.675 27.6156 28.5969 27.175ZM6.875 12.1875H15.375V5.6875H17.625V12.1875H26.125V15.4375H6.875V12.1875ZM21.5 25.9375V21.0625C21.5 20.925 21.3875 20.8125 21.25 20.8125H19.75C19.6125 20.8125 19.5 20.925 19.5 21.0625V25.9375H13.5V21.0625C13.5 20.925 13.3875 20.8125 13.25 20.8125H11.75C11.6125 20.8125 11.5 20.925 11.5 21.0625V25.9375H6.8375L8.24687 17.8125H24.75L26.1594 25.9375H21.5Z" fill="#7B7B7B"/>
</svg>
