<svg width="32" height="32" viewBox="0 0 32 32" fill="none" xmlns="http://www.w3.org/2000/svg">
<path d="M24 12C24.8395 11.3704 25.4597 10.4925 25.7726 9.49084C26.0855 8.48916 26.0753 7.41442 25.7434 6.41886C25.4116 5.4233 24.7749 4.55739 23.9236 3.94379C23.0722 3.33019 22.0494 3 21 3H12C10.9506 3 9.92779 3.33019 9.07646 3.94379C8.22513 4.55739 7.58845 5.4233 7.25659 6.41886C6.92474 7.41442 6.91454 8.48916 7.22744 9.49084C7.54034 10.4925 8.16048 11.3704 9.00001 12C8.36436 12.4764 7.85136 13.0973 7.50349 13.8115C7.15562 14.5256 6.98291 15.3123 6.99965 16.1065C7.01638 16.9006 7.2221 17.6794 7.59974 18.3782C7.97739 19.077 8.5161 19.6758 9.17126 20.125C8.42605 20.6916 7.83779 21.439 7.46218 22.2964C7.08656 23.1539 6.93602 24.093 7.0248 25.0249C7.11359 25.9569 7.43877 26.8507 7.96955 27.6218C8.50033 28.3929 9.21915 29.0157 10.0579 29.4314C10.8967 29.8471 11.8277 30.0417 12.7628 29.997C13.6978 29.9523 14.606 29.6696 15.4013 29.1758C16.1966 28.682 16.8527 27.9934 17.3074 27.1751C17.7622 26.3569 18.0006 25.4361 18 24.5V20C19.0609 20.7956 20.3944 21.1373 21.7071 20.9497C23.0199 20.7622 24.2044 20.0609 25 19C25.7957 17.9391 26.1373 16.6056 25.9498 15.2929C25.7622 13.9801 25.0609 12.7956 24 12ZM24 8C24 8.79565 23.6839 9.55871 23.1213 10.1213C22.5587 10.6839 21.7957 11 21 11H18V5H21C21.7957 5 22.5587 5.31607 23.1213 5.87868C23.6839 6.44129 24 7.20435 24 8ZM9.00001 8C9.00001 7.20435 9.31608 6.44129 9.87869 5.87868C10.4413 5.31607 11.2044 5 12 5H16V11H12C11.2044 11 10.4413 10.6839 9.87869 10.1213C9.31608 9.55871 9.00001 8.79565 9.00001 8ZM12 19C11.2044 19 10.4413 18.6839 9.87869 18.1213C9.31608 17.5587 9.00001 16.7956 9.00001 16C9.00001 15.2044 9.31608 14.4413 9.87869 13.8787C10.4413 13.3161 11.2044 13 12 13H16V19H12ZM16 24.5C16 25.1922 15.7947 25.8689 15.4102 26.4445C15.0256 27.0201 14.4789 27.4687 13.8394 27.7336C13.1999 27.9985 12.4961 28.0678 11.8172 27.9327C11.1383 27.7977 10.5146 27.4644 10.0251 26.9749C9.53565 26.4854 9.20231 25.8617 9.06726 25.1828C8.93221 24.5039 9.00152 23.8001 9.26643 23.1606C9.53134 22.5211 9.97994 21.9744 10.5555 21.5899C11.1311 21.2053 11.8078 21 12.5 21H16V24.5ZM21 19C20.4067 19 19.8266 18.8241 19.3333 18.4944C18.84 18.1648 18.4554 17.6962 18.2284 17.1481C18.0013 16.5999 17.9419 15.9967 18.0577 15.4147C18.1734 14.8328 18.4591 14.2982 18.8787 13.8787C19.2982 13.4591 19.8328 13.1734 20.4147 13.0576C20.9967 12.9419 21.5999 13.0013 22.1481 13.2284C22.6962 13.4554 23.1648 13.8399 23.4944 14.3333C23.8241 14.8266 24 15.4067 24 16C24 16.7956 23.6839 17.5587 23.1213 18.1213C22.5587 18.6839 21.7957 19 21 19Z" fill="#7B7B7B"/>
</svg>
