<svg width="32" height="32" viewBox="0 0 32 32" fill="none" xmlns="http://www.w3.org/2000/svg">
<path d="M3.75 16L5.122 10.514C5.23034 10.0815 5.4801 9.69762 5.83158 9.42331C6.18307 9.149 6.61614 9.00001 7.062 9H28.938C29.242 9.00001 29.542 9.06932 29.8152 9.20267C30.0884 9.33602 30.3276 9.5299 30.5147 9.76957C30.7017 10.0092 30.8316 10.2884 30.8946 10.5858C30.9575 10.8832 30.9519 11.1911 30.878 11.486L30.248 14.006M12 27H4.008C3.61336 27.0011 3.22239 26.9242 2.85749 26.7739C2.49259 26.6236 2.16093 26.4028 1.88151 26.1242C1.60208 25.8455 1.38039 25.5144 1.22912 25.1499C1.07786 24.7854 0.999999 24.3946 1 24V7C1 6.46957 1.21071 5.96086 1.58579 5.58579C1.96086 5.21071 2.46957 5 3 5H13C13.5304 5 14.0391 5.21071 14.4142 5.58579C14.7893 5.96086 15 6.46957 15 7V9" stroke="#7B7B7B" stroke-width="2" stroke-linecap="round" stroke-linejoin="round"/>
<path d="M19 31H27M23 17V27M23 27L19 23M23 27L27 23" stroke="#7B7B7B" stroke-width="2" stroke-linecap="round" stroke-linejoin="round"/>
</svg>
