<svg width="33" height="32" viewBox="0 0 33 32" fill="none" xmlns="http://www.w3.org/2000/svg">
<g clip-path="url(#clip0_397_1294)">
<path d="M27.7893 11.592L28.1173 10.8373C28.694 9.5023 29.7501 8.43189 31.0773 7.83733L32.0893 7.38533C32.2121 7.32886 32.3161 7.23836 32.389 7.12457C32.4619 7.01078 32.5006 6.87848 32.5006 6.74333C32.5006 6.60819 32.4619 6.47588 32.389 6.3621C32.3161 6.24831 32.2121 6.15781 32.0893 6.10134L31.1333 5.676C29.7728 5.06451 28.6986 3.95451 28.132 2.57467L27.7946 1.76C27.7451 1.63381 27.6587 1.52547 27.5466 1.4491C27.4346 1.37274 27.3022 1.33189 27.1666 1.33189C27.0311 1.33189 26.8986 1.37274 26.7866 1.4491C26.6746 1.52547 26.5882 1.63381 26.5386 1.76L26.2013 2.57334C25.6353 3.95344 24.5616 5.06391 23.2013 5.676L22.244 6.10267C22.1216 6.15931 22.0179 6.24979 21.9453 6.36343C21.8727 6.47708 21.8341 6.60913 21.8341 6.744C21.8341 6.87887 21.8727 7.01093 21.9453 7.12457C22.0179 7.23821 22.1216 7.3287 22.244 7.38533L23.2573 7.836C24.5842 8.43116 25.6399 9.50204 26.216 10.8373L26.544 11.592C26.784 12.144 27.548 12.144 27.7893 11.592ZM3.16663 5.33333C3.16663 4.97971 3.3071 4.64057 3.55715 4.39053C3.8072 4.14048 4.14634 4 4.49996 4H19.1666V6.66667H5.83329V25.3333H27.1666V14.6667H29.8333V26.6667C29.8333 27.0203 29.6928 27.3594 29.4428 27.6095C29.1927 27.8595 28.8536 28 28.5 28H4.49996C4.14634 28 3.8072 27.8595 3.55715 27.6095C3.3071 27.3594 3.16663 27.0203 3.16663 26.6667V5.33333ZM9.83329 10.6667H23.1666V14.6667H20.5V13.3333H17.8333V18.6667H19.8333V21.3333H13.1666V18.6667H15.1666V13.3333H12.5V14.6667H9.83329V10.6667Z" fill="#7B7B7B"/>
</g>
<defs>
<clipPath id="clip0_397_1294">
<rect width="32" height="32" fill="white" transform="translate(0.5)"/>
</clipPath>
</defs>
</svg>
