<svg width="30" height="30" viewBox="0 0 30 30" fill="none" xmlns="http://www.w3.org/2000/svg">
<path d="M25.6173 9.50398L25.2893 10.2586C25.238 10.3815 25.1515 10.4865 25.0407 10.5603C24.9299 10.6342 24.7998 10.6736 24.6666 10.6736C24.5335 10.6736 24.4033 10.6342 24.2925 10.5603C24.1817 10.4865 24.0952 10.3815 24.0439 10.2586L23.7159 9.50398C23.1392 8.16894 22.0831 7.09854 20.7559 6.50398L19.7439 6.05198C19.6212 5.9955 19.5172 5.905 19.4443 5.79121C19.3713 5.67743 19.3326 5.54512 19.3326 5.40998C19.3326 5.27483 19.3713 5.14253 19.4443 5.02874C19.5172 4.91495 19.6212 4.82445 19.7439 4.76798L20.6999 4.34264C22.0605 3.73115 23.1347 2.62115 23.7013 1.24131L24.0399 0.426643C24.0895 0.300448 24.1759 0.192107 24.2879 0.115743C24.3999 0.0393794 24.5324 -0.00146484 24.6679 -0.00146484C24.8035 -0.00146484 24.9359 0.0393794 25.048 0.115743C25.16 0.192107 25.2464 0.300448 25.2959 0.426643L25.6333 1.23998C26.1993 2.62008 27.273 3.73055 28.6333 4.34264L29.5906 4.76931C29.713 4.82595 29.8166 4.91643 29.8893 5.03008C29.9619 5.14372 30.0005 5.27577 30.0005 5.41064C30.0005 5.54551 29.9619 5.67757 29.8893 5.79121C29.8166 5.90485 29.713 5.99534 29.5906 6.05198L28.5773 6.50264C27.2504 7.0978 26.1947 8.16868 25.6186 9.50398M7.33327 7.99998C7.33333 6.80368 7.65529 5.62944 8.26539 4.60041C8.87548 3.57137 9.75123 2.72546 10.8008 2.15139C11.8503 1.57732 13.035 1.29624 14.2306 1.33763C15.4262 1.37902 16.5886 1.74136 17.5959 2.38664L16.1559 4.62931C15.5514 4.24244 14.8538 4.02537 14.1365 4.00086C13.4192 3.97636 12.7085 4.14532 12.0789 4.49003C11.4493 4.83474 10.9241 5.3425 10.5583 5.96006C10.1926 6.57762 9.99968 7.28222 9.99994 7.99998V16C9.99994 17.0608 10.4214 18.0783 11.1715 18.8284C11.9217 19.5786 12.9391 20 13.9999 20C15.0608 20 16.0782 19.5786 16.8284 18.8284C17.5785 18.0783 17.9999 17.0608 17.9999 16V9.33331H20.6666V16C20.6666 17.7681 19.9642 19.4638 18.714 20.714C17.4637 21.9643 15.7681 22.6666 13.9999 22.6666C12.2318 22.6666 10.5361 21.9643 9.2859 20.714C8.03565 19.4638 7.33327 17.7681 7.33327 16V7.99998ZM0.922607 18.616L3.53861 18.092C4.02446 20.5086 5.33198 22.6824 7.23902 24.2442C9.14606 25.806 11.535 26.6594 13.9999 26.6594C16.4649 26.6594 18.8538 25.806 20.7609 24.2442C22.6679 22.6824 23.9754 20.5086 24.4613 18.092L27.0773 18.616C25.8613 24.7266 20.4693 29.3333 13.9999 29.3333C7.53061 29.3333 2.13861 24.7266 0.922607 18.616Z" fill="#7B7B7B"/>
</svg>
