<svg width="116" height="48" viewBox="0 0 116 48" fill="none" xmlns="http://www.w3.org/2000/svg">
<rect x="0.5" y="0.814453" width="115" height="46.371" rx="23.1855" fill="#270D2F"/>
<rect x="19.5" y="8" width="77" height="33" rx="16.5" fill="white" fill-opacity="0.1"/>
<g clip-path="url(#clip0_47_16761)">
<path fill-rule="evenodd" clip-rule="evenodd" d="M60.937 12.1724C61.1348 12.2194 61.3214 12.3049 61.4861 12.4241C61.6508 12.5433 61.7903 12.6938 61.8969 12.8669C62.0034 13.0401 62.0747 13.2326 62.1068 13.4333C62.1388 13.6341 62.131 13.8392 62.0837 14.0369L56.9275 35.6787C56.8323 36.078 56.5824 36.4232 56.2327 36.6382C55.8831 36.8533 55.4623 36.9206 55.063 36.8254C54.6637 36.7303 54.3185 36.4804 54.1035 36.1307C53.8884 35.781 53.8211 35.3603 53.9163 34.9609L59.0725 13.3212C59.1195 13.1234 59.2051 12.9368 59.3242 12.7721C59.4434 12.6074 59.5939 12.4678 59.767 12.3613C59.9402 12.2548 60.1327 12.1835 60.3334 12.1514C60.5342 12.1194 60.7393 12.1251 60.937 12.1724ZM64.5175 16.7037C64.8075 16.414 65.2007 16.2513 65.6106 16.2513C66.0205 16.2513 66.4137 16.414 66.7038 16.7037L73.4069 23.4068L74.5 24.4999L73.4069 25.5931L66.7038 32.2962C66.5621 32.4482 66.3914 32.5701 66.2016 32.6546C66.0119 32.7392 65.807 32.7846 65.5993 32.7883C65.3916 32.792 65.1853 32.7538 64.9927 32.676C64.8001 32.5982 64.6251 32.4824 64.4782 32.3355C64.3313 32.1886 64.2155 32.0136 64.1377 31.821C64.0599 31.6284 64.0217 31.4221 64.0254 31.2144C64.0291 31.0067 64.0745 30.8018 64.1591 30.6121C64.2436 30.4223 64.3655 30.2516 64.5175 30.11L70.1275 24.4999L64.5175 18.89C64.2278 18.5999 64.0651 18.2067 64.0651 17.7968C64.0651 17.3869 64.2278 16.9937 64.5175 16.7037ZM51.4825 18.89C51.6345 18.7483 51.7564 18.5776 51.8409 18.3878C51.9255 18.1981 51.9709 17.9932 51.9746 17.7855C51.9783 17.5778 51.9401 17.3715 51.8623 17.1789C51.7845 16.9863 51.6687 16.8113 51.5218 16.6644C51.3749 16.5175 51.1999 16.4017 51.0073 16.3239C50.8147 16.2461 50.6084 16.2079 50.4007 16.2116C50.193 16.2153 49.9881 16.2607 49.7984 16.3453C49.6086 16.4298 49.4379 16.5517 49.2962 16.7037L42.5931 23.4068L41.5 24.4999L42.5931 25.5931L49.2962 32.2962C49.5895 32.5694 49.9773 32.7182 50.3781 32.7111C50.7788 32.7041 51.1612 32.5417 51.4446 32.2583C51.728 31.9749 51.8904 31.5925 51.8974 31.1918C51.9045 30.791 51.7557 30.4032 51.4825 30.11L45.8725 24.4999L51.4825 18.89Z" fill="white" fill-opacity="0.3"/>
</g>
<defs>
<clipPath id="clip0_47_16761">
<rect width="33" height="33" fill="white" transform="translate(41.5 8)"/>
</clipPath>
</defs>
</svg>
