<svg width="32" height="32" viewBox="0 0 32 32" fill="none" xmlns="http://www.w3.org/2000/svg">
<path d="M12.5921 10.8298L12.5928 10.8294C14.7228 9.62379 16.9489 8.75131 19.0582 8.30741C19.224 8.26308 19.4014 8.30204 19.5422 8.38901C19.6848 8.47707 19.8036 8.62265 19.8401 8.80848C19.9224 9.16199 19.7066 9.52789 19.3645 9.60003M12.5921 10.8298L19.3334 9.45329M12.5921 10.8298C10.0317 12.2977 7.91288 14.0895 6.45592 15.9233C5.02671 17.7222 4.22192 19.5779 4.28611 21.2161C3.76599 21.5824 3.42336 22.1907 3.42336 22.8666C3.42336 23.9635 4.33122 24.87 5.44003 24.87C6.54535 24.87 7.48336 23.9803 7.48336 22.8666C7.48336 21.8184 6.64386 20.9607 5.61954 20.8709C5.67116 19.5654 6.42511 18.0222 7.7281 16.4749C9.07523 14.8752 10.9943 13.2893 13.2746 11.9835M12.5921 10.8298L13.2 11.8533M19.3645 9.60003C19.3644 9.60005 19.3643 9.60006 19.3643 9.60007L19.3334 9.45329M19.3645 9.60003C19.3645 9.60002 19.3646 9.60001 19.3647 9.59999L19.3334 9.45329M19.3645 9.60003C17.3814 10.0231 15.2759 10.8436 13.2746 11.9835M19.3334 9.45329C17.3334 9.87996 15.2134 10.7066 13.2 11.8533M13.2746 11.9835L13.2 11.8533M13.2746 11.9835C13.2745 11.9835 13.2744 11.9836 13.2743 11.9836L13.2 11.8533M10.3918 23.9562L10.3925 23.9582C11.6512 27.3995 13.6735 29.4833 16 29.4833C17.6994 29.4833 19.2869 28.3553 20.5015 26.3579L20.5016 26.3579L20.5036 26.3544C20.5896 26.2039 20.6135 26.0258 20.5701 25.8579C20.5266 25.6901 20.4193 25.5459 20.2711 25.456C20.1228 25.3662 19.9453 25.3378 19.7765 25.377C19.6076 25.4161 19.4607 25.5197 19.3671 25.6656L19.3671 25.6656L19.365 25.669C18.3766 27.3031 17.1765 28.1566 16 28.1566C15.1875 28.1566 14.371 27.7411 13.6173 26.9452C12.8639 26.1495 12.1832 24.9829 11.648 23.5095C11.5288 23.1706 11.1537 22.9763 10.8048 23.1112C10.4369 23.221 10.2743 23.6206 10.3918 23.9562ZM21.2074 23.7765L21.2074 23.7766H21.2134C21.5048 23.7766 21.7632 23.5882 21.8498 23.3118C22.4815 21.309 22.8167 19.0136 22.8167 16.6666C22.8167 13.7905 22.3241 11.1049 21.4729 8.94496C20.6382 6.82671 19.451 5.19597 18.0269 4.40251C17.9661 3.34666 17.0764 2.51663 16 2.51663C14.9046 2.51663 13.9967 3.40975 13.9967 4.51996C13.9967 5.63017 14.9046 6.52329 16 6.52329C16.6674 6.52329 17.2557 6.17926 17.6231 5.72166C18.7197 6.45459 19.6713 7.88732 20.3557 9.76955C21.0624 11.7128 21.4767 14.1152 21.4767 16.6666C21.4767 18.8945 21.1848 21.0515 20.5775 22.8998L20.5745 22.909L20.5727 22.9186C20.5087 23.2543 20.6518 23.6198 21.0193 23.7423L21.0195 23.7423C21.0802 23.7625 21.1435 23.774 21.2074 23.7765ZM24.2611 17.9127L24.2624 17.9138C24.3822 18.0165 24.5366 18.07 24.6667 18.07C24.8815 18.07 25.0695 17.9859 25.2055 17.8329L25.2076 17.8306C27.5911 15.0319 28.3804 12.2652 27.2097 10.2579C26.359 8.79357 24.5486 7.99694 22.1884 7.96997L22.1884 7.96971L22.1796 7.97013C21.8351 7.98653 21.5187 8.2512 21.5167 8.62306C21.5013 8.9884 21.7968 9.29603 22.1723 9.29663C24.1118 9.3232 25.4699 9.91692 26.057 10.9286L26.0575 10.9294C26.4696 11.6287 26.5187 12.5355 26.2031 13.5764C25.8876 14.6175 25.2105 15.7795 24.1927 16.9691L24.1925 16.9694C24.0778 17.1042 24.0207 17.2786 24.0335 17.4551C24.0464 17.6316 24.1281 17.7959 24.2611 17.9127ZM12.592 22.49L12.5924 22.4903C15.8622 24.353 19.301 25.35 22 25.35C23.3915 25.35 24.6044 25.1074 25.5558 24.5998C25.8408 24.7652 26.1625 24.8582 26.4928 24.8702C26.853 24.8832 27.2101 24.7991 27.5268 24.6268C27.8434 24.4545 28.1079 24.2003 28.2926 23.8907C28.4773 23.5811 28.5754 23.2276 28.5767 22.8671V22.8666C28.5767 21.7557 27.6681 20.8633 26.56 20.8633C25.4547 20.8633 24.5167 21.753 24.5167 22.8666C24.5167 23.1094 24.5852 23.3463 24.6699 23.5523C23.4624 24.0847 21.737 24.1633 19.7686 23.8041C17.7322 23.4324 15.4549 22.5956 13.2614 21.3365L13.261 21.3363C11.2863 20.2098 9.53893 18.8325 8.20386 17.3785L8.2028 17.3774C7.94452 17.1019 7.53616 17.0922 7.24127 17.3216L7.23227 17.3286L7.22444 17.3368C7.10429 17.4637 7.03733 17.6319 7.03733 17.8066C7.03733 17.981 7.10402 18.1488 7.22371 18.2756C8.6616 19.8343 10.5137 21.2967 12.592 22.49ZM5.37698 15.8086L5.37713 15.8089C5.49433 16.0098 5.71428 16.15 5.9467 16.15C6.07596 16.15 6.18378 16.0959 6.2585 16.0584C6.26142 16.057 6.26429 16.0555 6.26711 16.0541L6.26724 16.0544L6.27519 16.0498C6.60084 15.8612 6.70214 15.4652 6.53277 15.1434L6.5329 15.1434L6.52953 15.1376C5.52668 13.4222 5.35703 11.9392 5.95615 10.9157L5.95771 10.913C6.35003 10.2093 7.12183 9.71371 8.2023 9.46274C9.28104 9.21217 10.6516 9.21001 12.2101 9.48034C12.5742 9.56419 12.9205 9.32073 12.9746 8.95857C13.0093 8.77817 12.9537 8.60176 12.8572 8.46628C12.7603 8.33023 12.613 8.22203 12.4443 8.18651L12.4443 8.18644L12.4399 8.18565C8.7844 7.52954 5.97409 8.23816 4.8038 10.2444L4.80358 10.2448C3.93892 11.737 4.16318 13.7182 5.37698 15.8086ZM16.3126 18.0131L16.3129 18.013C17.0501 17.8475 17.4944 17.1133 17.3609 16.3862L17.3609 16.3862L17.3605 16.3839C17.2097 15.6304 16.4594 15.1711 15.7173 15.3195L15.7173 15.3195L15.7142 15.3202C15.3571 15.3996 15.0461 15.6175 14.8497 15.9261C14.6533 16.2347 14.5876 16.6087 14.6669 16.9658C14.7463 17.3229 14.9642 17.6339 15.2729 17.8303C15.5815 18.0267 15.9555 18.0924 16.3126 18.0131ZM15.3234 4.51996C15.3234 4.14947 15.6295 3.84329 16 3.84329C16.3885 3.84329 16.7034 4.15407 16.7034 4.51996C16.7034 4.88275 16.3918 5.18329 16 5.18329C15.6381 5.18329 15.3234 4.88575 15.3234 4.51996ZM4.76336 22.8666C4.76336 22.4961 5.06954 22.19 5.44003 22.19C5.81365 22.19 6.13003 22.4992 6.13003 22.8666C6.13003 23.2458 5.81525 23.5433 5.44003 23.5433C5.06796 23.5433 4.76336 23.2489 4.76336 22.8666ZM26.56 23.5433C26.4177 23.5433 26.2765 23.4925 26.1322 23.4106C26.1081 23.3473 26.0621 23.2958 26.0112 23.2611C25.9303 23.1416 25.8834 23.0071 25.8834 22.8666C25.8834 22.4945 26.1778 22.19 26.56 22.19C26.7395 22.19 26.9116 22.2612 27.0385 22.3881C27.1654 22.515 27.2367 22.6872 27.2367 22.8666C27.2367 23.0461 27.1654 23.2182 27.0385 23.3451C26.9116 23.472 26.7395 23.5433 26.56 23.5433Z" fill="#7B7B7B" stroke="#7B7B7B" stroke-width="0.3"/>
</svg>
