<svg width="24" height="22" viewBox="0 0 24 22" fill="none" xmlns="http://www.w3.org/2000/svg">
<path d="M19.7328 7.23348C19.4774 7.14587 19.2198 7.06469 18.9603 6.99001C19.0039 6.81189 19.044 6.63592 19.0796 6.46305C19.6644 3.6242 19.2821 1.33717 17.9763 0.584171C16.7242 -0.137704 14.6767 0.615015 12.6087 2.41473C12.4049 2.59241 12.2056 2.77522 12.0111 2.96298C11.8808 2.83814 11.7483 2.71571 11.6135 2.59576C9.44616 0.671453 7.27378 -0.139579 5.96934 0.615577C4.71844 1.3397 4.34803 3.48967 4.87453 6.18011C4.92691 6.44657 4.98606 6.71165 5.05191 6.97511C4.74441 7.06248 4.44769 7.15548 4.16372 7.25448C1.62272 8.14042 0 9.52876 0 10.9689C0 12.4562 1.74206 13.948 4.38863 14.8526C4.60319 14.9257 4.81954 14.9933 5.03747 15.0556C4.96672 15.3394 4.90388 15.625 4.84903 15.9123C4.34709 18.556 4.73906 20.6552 5.98659 21.3747C7.27509 22.1178 9.43772 21.3541 11.5434 19.5133C11.7142 19.3637 11.8812 19.2098 12.0443 19.0518C12.255 19.2551 12.4713 19.4525 12.693 19.6437C14.7328 21.3989 16.7473 22.1077 17.9936 21.3862C19.2809 20.641 19.6993 18.3859 19.1561 15.6423C19.1133 15.4274 19.0654 15.2135 19.0122 15.0009C19.1641 14.9559 19.3132 14.9095 19.4585 14.8614C22.2098 13.9498 24 12.4761 24 10.9689C24 9.52351 22.3249 8.1258 19.7328 7.23348ZM19.1361 13.8882C19.0047 13.9316 18.8703 13.9736 18.7329 14.0143C18.4292 13.0527 18.0193 12.0303 17.5177 10.9738C17.9963 9.94258 18.3905 8.93317 18.6857 7.97786C18.9312 8.04892 19.1694 8.12383 19.3991 8.20286C21.6201 8.96748 22.9748 10.0978 22.9748 10.9689C22.9748 11.8966 21.5117 13.101 19.1361 13.8882ZM18.1504 15.8414C18.3906 17.0545 18.4248 18.1514 18.2657 19.009C18.1228 19.7795 17.8354 20.2931 17.4799 20.4989C16.7236 20.9367 15.1061 20.3677 13.3617 18.8665C13.1555 18.6887 12.9543 18.5052 12.7582 18.3162C13.4346 17.5766 14.1104 16.7169 14.77 15.7619C15.9303 15.659 17.0264 15.4906 18.0204 15.2608C18.0695 15.4585 18.1128 15.652 18.1504 15.8414ZM8.18213 20.4233C7.44319 20.6842 6.85462 20.6917 6.49884 20.4865C5.74181 20.05 5.42709 18.3644 5.85637 16.1035C5.90741 15.8364 5.96584 15.5707 6.03159 15.3068C7.01466 15.5243 8.10281 15.6806 9.26578 15.775C9.92991 16.7094 10.6252 17.5682 11.326 18.3203C11.1771 18.4644 11.0246 18.6048 10.8688 18.7414C9.93759 19.5553 9.0045 20.1328 8.18213 20.4233ZM4.72031 13.8825C3.55003 13.4825 2.58356 12.9626 1.92113 12.3954C1.32581 11.8856 1.02534 11.3795 1.02534 10.9689C1.02534 10.0949 2.32819 8.98023 4.50122 8.22264C4.76494 8.13076 5.04094 8.04405 5.32734 7.96267C5.62772 8.93955 6.02166 9.96095 6.49706 10.9938C6.01547 12.0419 5.61591 13.0796 5.31262 14.068C5.1137 14.0111 4.9162 13.9492 4.72031 13.8825ZM5.88075 5.98314C5.42972 3.67811 5.72925 1.93933 6.48309 1.50292C7.28597 1.03811 9.06141 1.70083 10.9327 3.36245C11.0548 3.47105 11.1748 3.58185 11.2928 3.6948C10.5955 4.44358 9.90656 5.29605 9.24834 6.22492C8.11959 6.32955 7.03912 6.49755 6.04575 6.72264C5.98453 6.4776 5.92952 6.23096 5.88075 5.98314ZM16.2333 8.53961C15.9986 8.13432 15.7553 7.73414 15.5034 7.33933C16.2692 7.43617 17.0029 7.5647 17.6918 7.72183C17.485 8.38483 17.2272 9.07792 16.9237 9.78855C16.7019 9.36768 16.4717 8.95128 16.2333 8.53961ZM12.0115 4.42764C12.4844 4.93998 12.958 5.51195 13.4239 6.13258C12.4789 6.08794 11.5323 6.08775 10.5873 6.13201C11.0536 5.51711 11.5312 4.94589 12.0115 4.42764ZM7.76269 8.54655C7.52722 8.9549 7.30131 9.3687 7.08516 9.78761C6.78666 9.07951 6.53119 8.38323 6.32259 7.71086C7.00734 7.55767 7.73756 7.43242 8.49844 7.33736C8.24377 7.73458 7.99845 8.13782 7.76269 8.54655ZM8.52028 14.6732C7.73419 14.5855 6.993 14.4667 6.30844 14.3176C6.52031 13.6332 6.78141 12.9221 7.08637 12.1989C7.30338 12.6181 7.53023 13.0321 7.76672 13.4407C8.00991 13.8607 8.26172 14.272 8.52028 14.6732ZM12.0398 17.5823C11.5538 17.058 11.0692 16.478 10.5958 15.8542C11.0554 15.8722 11.5238 15.8814 12 15.8814C12.4892 15.8814 12.9728 15.8704 13.4487 15.8492C12.9814 16.4843 12.5095 17.0651 12.0398 17.5823ZM16.9334 12.1619C17.2542 12.8932 17.5246 13.6005 17.7393 14.2732C17.0435 14.432 16.2922 14.5599 15.5005 14.6548C15.7542 14.2527 15.9998 13.8456 16.2373 13.4336C16.4788 13.015 16.7109 12.5909 16.9334 12.1619ZM15.3492 12.9214C14.9856 13.5529 14.6017 14.1725 14.1979 14.779C13.4664 14.8309 12.7333 14.8566 12 14.8562C11.2531 14.8562 10.5266 14.833 9.82706 14.7876C9.41269 14.1824 9.02138 13.5618 8.65397 12.927C8.28824 12.2956 7.94674 11.6506 7.63003 10.9932C7.94594 10.3357 8.2865 9.69038 8.65097 9.05851L8.65088 9.05861C9.01516 8.42655 9.40335 7.80857 9.81459 7.20601C10.5283 7.15201 11.2602 7.12389 11.9999 7.12389C12.743 7.12389 13.4759 7.1523 14.1894 7.20667C14.5965 7.80833 14.9822 8.42418 15.3458 9.05308C15.7115 9.68358 16.0565 10.3258 16.3805 10.9787C16.0599 11.6383 15.7159 12.2863 15.3492 12.9214ZM17.4642 1.47226C18.2678 1.93576 18.5804 3.80486 18.0755 6.25595C18.0431 6.41245 18.0072 6.57151 17.9677 6.73314C16.9718 6.50326 15.8906 6.33236 14.7586 6.22614C14.0992 5.28705 13.4158 4.43326 12.7298 3.69414C12.9096 3.52085 13.0937 3.35205 13.2818 3.18789C15.0537 1.64598 16.7097 1.03717 17.4642 1.47226ZM12 8.82573C13.1836 8.82573 14.1431 9.78526 14.1431 10.9689C14.1431 12.1525 13.1836 13.112 12 13.112C10.8164 13.112 9.85687 12.1525 9.85687 10.9689C9.85687 9.78526 10.8164 8.82573 12 8.82573Z" fill="#00D8FF"/>
</svg>
