<svg width="19" height="32" viewBox="0 0 19 32" fill="none" xmlns="http://www.w3.org/2000/svg">
<path fill-rule="evenodd" clip-rule="evenodd" d="M15.7955 6.83969C15.7955 5.92346 13.9369 3.42021 12.6979 3.42021C13.9369 3.42021 15.7955 0.916238 15.7955 9.53674e-07C15.7955 0.916238 17.6024 3.41997 18.8414 3.41997C17.6024 3.41997 15.7955 5.92346 15.7955 6.83969ZM14.5929 12.1531C14.5929 16.1873 11.6554 19.4576 8.03179 19.4576C4.4082 19.4576 1.47071 16.1873 1.47071 12.1531C1.47071 8.11891 4.4082 4.84856 8.03179 4.84856C11.6554 4.84856 14.5929 8.11891 14.5929 12.1531ZM6.06336 7.40125C6.06336 6.31417 6.94461 5.43292 8.03169 5.43292C9.11876 5.43292 10 6.31417 10 7.40125V16.7588C10 17.8459 9.11876 18.7272 8.03169 18.7272C6.94461 18.7272 6.06336 17.8459 6.06336 16.7588V7.40125ZM0.158569 19.8957C0.158569 21.5789 0.158569 26.6282 4.57772 26.6282H10.5C12.5884 26.6282 14.3202 27.7592 12.9508 29.3359C12.2141 30.1842 11.1641 30.901 10.0435 30.901C17.525 30.901 16.8667 21.6436 10.0435 21.6436H2.01926C0.914477 21.6436 0.158569 20.9315 0.158569 19.8957ZM5.8633 30.9009C6.70408 30.9009 7.94772 31.7055 7.94772 32C7.94772 31.7055 9.19137 30.9008 10.0321 30.9008C9.19137 30.9008 7.94772 30.096 7.94772 29.8015C7.94772 30.096 6.70408 30.9009 5.8633 30.9009Z" fill="#D11CE9"/>
</svg>
